<svg xmlns="http://www.w3.org/2000/svg" xmlns:xlink="http://www.w3.org/1999/xlink" version="1.1" x="0px" y="0px" viewBox="0 0 100 125" enable-background="new 0 0 100 100" xml:space="preserve"><g><g><path d="M54.6,91.4c-1.2,0-1.9-0.7-2.4-1.2c-0.4-0.4-0.8-0.9-1.8-1.2c-3.9-1.5-5-3.7-5.1-5.2c-0.1-0.2-0.7-0.7-1-0.7    c0,0,0,0.1-0.1,0.2c-0.6,1.2-1.7,3.5-4.2,3.5c-0.8,0-1.6-0.2-2.5-0.6c-0.9-0.4-1.8-0.9-2.6-1.4c-0.7-0.4-1.6-1-2.1-1.1    c-0.5,0.5-1.2,1.2-2.5,1.2c-1.2,0-2.5-0.6-5-2.2c-2.1-1.4-3.6-3.4-4.9-5.1c-0.9-1.3-2.1-2.8-2.8-2.9c-0.8,0-1.8-0.1-2.7-0.1    c-2.8-0.1-5-2.5-4.9-5.3l2-53.9c0.1-2.8,2.4-5,5.1-5h19.2c0.3,0,0.5,0,0.8,0.1l1.1,0.2c0.7,0.1,1.4,0.4,2,0.8    c4.7,3.1,11,6.6,13.7,6.6c0.2,0,0.3,0,0.3,0c1.4-0.3,2.5-0.9,3.6-1.5c1.3-0.7,2.6-1.4,4.1-1.4c0.5,0,1.1,0.1,1.6,0.3l0.5,0.2    c0.6,0.2,1.1,0.4,1.3,0.4c0.2,0,0.7-0.2,1.4-0.5l0.6-0.3c1.7-0.8,4.4-2.7,6.4-4.2c0.3-0.2,0.6-0.4,1-0.6l8.9-4.1    c0.7-0.3,1.4-0.5,2.1-0.5c2.8,0,5,2.2,5.1,5l0.9,22.9c0.1,2.1-0.9,4-2.6,4.9c0.1,1.2,0.2,3,0.4,4.2c0.1,1.3,0.2,1.7,0.2,2    c0,0.4-0.1,0.7-0.8,2.6c-0.4,1.1-1.3,3.5-1.4,4.1c0,0.1-1.2,10.3-3.8,11.7c-1.7,0.9-3.5,2.3-3.8,2.8c-0.5,1.1-2.8,3.6-5,3.6    c-0.5,0-0.9-0.1-1.3-0.3c-0.7,0-1.7,0.6-2.1,1c0,2.1-1.4,7.5-2.8,9.4c-0.6,0.8-1.3,1.2-2.1,1.2c0,0,0,0,0,0c-0.5,0-1-0.2-1.4-0.5    c-0.6-0.5-1.2-1.1-1.6-1.6c-0.1-0.1-0.2-0.3-0.4-0.4c-0.2,0.2-0.4,0.5-0.6,0.7c-0.9,0.9-1.7,1.8-2,4.7c-0.6,4.8-1.1,6-4.5,7.3    C55.7,91.2,55.1,91.4,54.6,91.4z M54.6,88.4l0,1.5L54.6,88.4C54.6,88.4,54.6,88.4,54.6,88.4z M44.3,80.1c1.8,0,3.8,1.6,4,3.3    c0.1,1,1.3,1.9,3.2,2.7c1.6,0.6,2.4,1.4,2.9,2c0.1,0.1,0.2,0.2,0.2,0.3c0.1,0,0.3-0.1,0.7-0.2c2-0.8,2.1-0.8,2.6-4.9    c0.5-3.9,1.8-5.3,2.8-6.4c0.3-0.3,0.5-0.5,0.7-0.8c0.7-0.9,1.5-1.1,2-1.1c1.1,0,1.9,0.8,2.7,1.7c0.2,0.2,0.4,0.5,0.7,0.7    c0.9-1.6,2-6,1.9-7.1c-0.1-0.4-0.1-1.1,0.5-1.8c0.8-1.1,2.9-2.3,4.6-2.3c0.5,0,1,0.1,1.4,0.3c0.6-0.1,1.9-1.3,2.2-1.8    c0.7-1.7,4.4-3.8,5-4.2c0.9-1.1,2.3-7.8,2.3-9.2c0-0.8,0.5-2.2,1.6-5.1c0.2-0.6,0.5-1.3,0.6-1.6c0-0.3-0.1-0.8-0.1-1.5    c-0.1-1.3-0.3-3-0.4-4.3c-0.1-1.2,0.5-2.2,1.5-2.7c0.8-0.4,1.1-1.4,1.1-2.2L88,10.9c0-1.3-1.1-2.1-2.1-2.1c-0.3,0-0.6,0.1-0.9,0.2    l-8.9,4.1c-0.1,0.1-0.3,0.1-0.4,0.2c-1.3,1-4.7,3.5-7,4.5l-0.6,0.3c-1.2,0.5-1.8,0.8-2.6,0.8c-0.7,0-1.3-0.2-2.3-0.6l-0.5-0.2    c-0.2-0.1-0.4-0.1-0.6-0.1c-0.7,0-1.6,0.5-2.7,1.1c-1.2,0.6-2.5,1.4-4.3,1.8c-0.3,0.1-0.7,0.1-1.1,0.1c-3.9,0-11.3-4.5-15.3-7.1    c-0.3-0.2-0.5-0.3-0.8-0.3l-1.1-0.2c-0.1,0-0.2,0-0.3,0H17.3c-1.2,0-2.1,0.9-2.1,2.1l-2,53.9c0,1.2,0.9,2.2,2.1,2.2    c0.9,0,1.9,0.1,2.8,0.1c2.1,0.1,3.4,2,5,4.1c1.2,1.6,2.5,3.3,4.1,4.4c2.2,1.4,3,1.7,3.3,1.7c0,0,0.1-0.1,0.4-0.4    c0.5-0.6,1.2-0.8,1.9-0.8c1.2,0,2.4,0.7,3.8,1.5c0.7,0.4,1.5,0.9,2.3,1.2c0.7,0.3,1.1,0.4,1.3,0.4c0.3,0,0.7-0.1,1.5-1.8    C42.1,80.8,43.1,80.1,44.3,80.1z"/></g></g></svg>