<svg xmlns="http://www.w3.org/2000/svg" xmlns:xlink="http://www.w3.org/1999/xlink" version="1.1" x="0px" y="0px" viewBox="0 0 100 125" enable-background="new 0 0 100 100" xml:space="preserve"><g><g><path d="M78.5,75C78.5,75,78.5,75,78.5,75L11,74.5c-0.9,0-1.8-0.4-2.5-1.1c-0.7-0.7-1-1.6-1-2.5l0.9-41c0-1.4,0.9-2.6,2.1-3.1    l7.5-3.3c0.4-0.2,0.9-0.3,1.4-0.3c1.9,0,3.5,1.6,3.5,3.5c0,0.3,0.2,0.5,0.5,0.5c61,0.7,62.3,1.2,62.8,1.4c1,0.4,4.4,2,4.7,6.2    c0.1,1.7,0.7,2.1,2.1,3c0.4,0.3,0.9,0.6,1.3,0.9c0.8,0.6,1.5,1.3,1.6,2.3c0.1,1-0.6,1.8-1.2,2.5c-0.2,0.2-0.4,0.4-0.5,0.5    c-0.7,0.6-0.8,0.8-1,2.1c-0.2,1.3-0.7,2.4-1.3,3.5c-0.5,1-1.1,2.2-1.6,3.9c-0.6,2.3,2.5,5.6,4.6,7.8c0.4,0.4,0.8,0.8,1.1,1.2    c0.6,0.7,1.3,1.6,1,2.7c-0.3,1.2-1.4,1.6-2.4,1.9c-0.8,0.3-1.7,0.6-2.4,1.2c-2.2,2.3-5.5,3.7-8.6,3.7c-0.2,0-0.3,0-0.4,0    c0,0,0,0,0,0c-0.9,0-1.6,0.8-1.9,1.3C80.7,74.5,79.6,75,78.5,75z M19.5,26.3c-0.1,0-0.1,0-0.2,0l-7.5,3.3    c-0.2,0.1-0.3,0.2-0.3,0.4l-0.9,41c0,0.2,0.1,0.3,0.1,0.4c0.1,0.1,0.2,0.1,0.3,0.1L78.5,72l0,1.5V72c0.2,0,0.3-0.1,0.4-0.2    c1.2-1.7,2.8-2.7,4.5-2.6c0.1,0,0.2,0,0.3,0c1.9,0,4.6-0.9,6.4-2.8c1.1-1.2,2.5-1.7,3.6-2c-0.3-0.3-0.6-0.6-0.9-0.9    c-2.7-2.8-6.4-6.7-5.3-10.7c0.5-2,1.2-3.4,1.8-4.5c0.5-1,0.9-1.7,1-2.5c0.3-2.3,0.9-3,1.9-4c0.1-0.1,0.3-0.3,0.4-0.4    c0,0,0.1-0.1,0.1-0.1c-0.1,0-0.1-0.1-0.2-0.2c-0.4-0.3-0.8-0.5-1.1-0.8c-1.5-1-3.2-2.1-3.5-5.3c-0.2-2.4-1.9-3.3-2.7-3.6    c-2.6-0.4-34.8-0.9-61.8-1.2c-1.9,0-3.4-1.6-3.4-3.5C20,26.5,19.7,26.3,19.5,26.3z"/></g></g></svg>